<?xml version="1.0" encoding="UTF-8"?>
<svg width="64px" height="64px" viewBox="0 0 64 64" version="1.1" xmlns="http://www.w3.org/2000/svg" xmlns:xlink="http://www.w3.org/1999/xlink">
    <!-- Generator: sketchtool 60.1 (101010) - https://sketch.com -->
    <title>F6644A89-D0B0-4801-81D2-440A5452BCE4@2.00x</title>
    <desc>Created with sketchtool.</desc>
    <defs>
        <linearGradient x1="50%" y1="96.746297%" x2="50%" y2="3.12250226e-15%" id="linearGradient-1">
            <stop stop-color="#38B899" offset="0%"></stop>
            <stop stop-color="#12A2E1" offset="100%"></stop>
        </linearGradient>
    </defs>
    <g id="Page-1" stroke="none" stroke-width="1" fill="none" fill-rule="evenodd">
        <g id="1440-Couriers" transform="translate(-580.000000, -990.000000)">
            <g id="USP" transform="translate(160.000000, 990.000000)">
                <g id="Money" transform="translate(420.000000, 0.000000)">
                    <g>
                        <path d="M43,26 L43,23.5131475 C43,23.1528018 42.9513076,22.7941084 42.8552445,22.4468032 C42.2663188,20.3176105 40.0628485,19.0689773 37.9336558,19.657903 L15.0045358,26 L10.2555408,26 C6.68946584,26 5.39632089,26.3713024 4.09261719,27.0685308 C2.78891348,27.7657592 1.76575919,28.7889135 1.06853082,30.0926172 C0.371302445,31.3963209 0,32.6894658 0,36.2555408 L0,34.1241281 C0,31.0946723 0.241027034,29.9948036 0.72791927,28.8397438 C1.21481151,27.684684 1.94756894,26.7217356 2.93102975,25.9445406 C3.91449056,25.1673456 4.91030183,24.6418314 7.83012503,23.8342207 L36.8673116,15.8026585 C41.125697,14.6248072 45.5326377,17.1220736 46.710489,21.380459 C46.9026152,22.0750694 47,22.7924561 47,23.5131475 L47,26.0179404 C46.6151487,26.0060113 46.198203,26 45.7444592,26 L43,26 Z" id="Path" fill="#2E2E33" fill-rule="nonzero"></path>
                        <path d="M8.4540241,13.8122602 L58.9693494,0.341506827 C61.1038967,-0.227705783 63.2957271,1.0412487 63.8649398,3.17579598 C63.9545967,3.51200933 64,3.85848427 64,4.20644659 L64,32.3903301 C64,35.1086343 62.1724964,37.4873343 59.5459759,38.1877398 L4,53 L4,53 L4,19.6096699 C4,16.8913657 5.82750361,14.5126657 8.4540241,13.8122602 Z" id="Rectangle" fill="url(#linearGradient-1)" opacity="0.503487723"></path>
                        <path d="M45.7444592,26 C49.3105342,26 50.6036791,26.3713024 51.9073828,27.0685308 C53.2110865,27.7657592 54.2342408,28.7889135 54.9314692,30.0926172 C55.6286976,31.3963209 56,32.6894658 56,36.2555408 L56,38 C58.209139,38 60,39.790861 60,42 L60,48 C60,50.209139 58.209139,52 56,52 L56,53.7444592 C56,57.3105342 55.6286976,58.6036791 54.9314692,59.9073828 C54.2342408,61.2110865 53.2110865,62.2342408 51.9073828,62.9314692 C50.6036791,63.6286976 49.3105342,64 45.7444592,64 L10.2555408,64 C6.68946584,64 5.39632089,63.6286976 4.09261719,62.9314692 C2.78891348,62.2342408 1.76575919,61.2110865 1.06853082,59.9073828 C0.371302445,58.6036791 0,57.3105342 0,53.7444592 L0,36.2555408 C0,32.6894658 0.371302445,31.3963209 1.06853082,30.0926172 C1.76575919,28.7889135 2.78891348,27.7657592 4.09261719,27.0685308 C5.39632089,26.3713024 6.68946584,26 10.2555408,26 L45.7444592,26 Z M46.041864,30.0006982 L10.2555408,30 C7.60813313,30 6.80192289,30.1556864 5.97901262,30.5957836 C5.37238281,30.9202128 4.92021278,31.3723828 4.59578361,31.9790126 C4.1726132,32.7702725 4.0123966,33.5460923 4.00069824,35.958136 L4,53.7444592 C4,56.3918669 4.15568638,57.1980771 4.59578361,58.0209874 C4.92021278,58.6276172 5.37238281,59.0797872 5.97901262,59.4042164 C6.80192289,59.8443136 7.60813313,60 10.2555408,60 L45.7444592,60 C48.3918669,60 49.1980771,59.8443136 50.0209874,59.4042164 C50.6276172,59.0797872 51.0797872,58.6276172 51.4042164,58.0209874 C51.8443136,57.1980771 52,56.3918669 52,53.7444592 L52,52 L46,52 C42.1340068,52 39,48.8659932 39,45 C39,41.1340068 42.1340068,38 46,38 L52,38 L52,36.2555408 C52,33.6081331 51.8443136,32.8019229 51.4042164,31.9790126 C51.0797872,31.3723828 50.6276172,30.9202128 50.0209874,30.5957836 C49.2297275,30.1726132 48.4539077,30.0123966 46.041864,30.0006982 Z M56,42 L46,42 C44.3431458,42 43,43.3431458 43,45 C43,46.6568542 44.3431458,48 46,48 L56,48 L56,42 Z M46,43 C47.1045695,43 48,43.8954305 48,45 C48,46.1045695 47.1045695,47 46,47 C44.8954305,47 44,46.1045695 44,45 C44,43.8954305 44.8954305,43 46,43 Z" id="Combined-Shape" fill="#2E2E33" fill-rule="nonzero"></path>
                    </g>
                </g>
            </g>
        </g>
    </g>
</svg>