<?xml version="1.0" encoding="UTF-8"?>
<svg width="64px" height="64px" viewBox="0 0 64 64" version="1.1" xmlns="http://www.w3.org/2000/svg" xmlns:xlink="http://www.w3.org/1999/xlink">
    <!-- Generator: sketchtool 60.1 (101010) - https://sketch.com -->
    <title>683F8AF0-A229-4429-93B8-28ACB0F07CB8@2.00x</title>
    <desc>Created with sketchtool.</desc>
    <defs>
        <linearGradient x1="50%" y1="-2.48949813e-15%" x2="50%" y2="100%" id="linearGradient-1">
            <stop stop-color="#DB0071" offset="0%"></stop>
            <stop stop-color="#6206E2" offset="100%"></stop>
        </linearGradient>
    </defs>
    <g id="Page-1" stroke="none" stroke-width="1" fill="none" fill-rule="evenodd">
        <g id="1440-Couriers" transform="translate(-160.000000, -1250.000000)">
            <g id="USP" transform="translate(160.000000, 990.000000)">
                <g id="Place" transform="translate(0.000000, 260.000000)">
                    <g>
                        <polygon id="Rectangle" fill="url(#linearGradient-1)" opacity="0.400000006" points="20 20 42 9.23705556e-14 64 20 64 48 20 48"></polygon>
                        <path d="M13.8679234,27.7332723 C13.8679234,31.0632496 16.6099694,33.7734105 20.0010604,33.7734105 C23.391345,33.7734105 26.1341973,31.0619677 26.1341973,27.7332723 C26.1341973,24.401454 23.392398,21.6910522 20.0010604,21.6910522 C16.6089162,21.6910522 13.8679234,24.4001721 13.8679234,27.7332723 Z M9.86792342,27.7332723 C9.86792342,22.1804927 14.4101822,17.6910522 20.0010604,17.6910522 C25.5912901,17.6910522 30.1341973,22.1819367 30.1341973,27.7332723 C30.1341973,33.281485 25.5902371,37.7734105 20.0010604,37.7734105 C14.4112354,37.7734105 9.86792342,33.2829291 9.86792342,27.7332723 Z M0,27.7978099 C0,16.857799 8.95917864,8 20.0010604,8 C31.0411852,8 40,16.8581602 40,27.7978099 C40,31.4975147 38.0892927,36.3947025 34.6898389,42.3463636 C33.5024172,44.4252655 32.1508116,46.5963316 30.6654211,48.832501 C28.671126,51.8347968 26.5376226,54.804755 24.4042296,57.6132958 C23.6574497,58.5964068 22.9636024,59.4896614 22.340187,60.276707 C22.1213068,60.5530375 21.9266342,60.7966318 21.7583595,61.00544 C21.6562906,61.1320949 21.5850172,61.2198413 21.5467307,61.2666265 L19.9668769,63.1971748 L18.4260578,61.235331 C18.3882612,61.1872066 18.3174839,61.0965007 18.2159177,60.9654353 C18.0481929,60.748996 17.8540757,60.4966573 17.6357568,60.2106387 C17.0136293,59.3955926 16.3210843,58.4725891 15.5756255,57.4593426 C13.4457824,54.5644057 11.3157748,51.5227381 9.32495116,48.4744256 C8.09234125,46.587076 6.95073098,44.7533728 5.91820062,42.9909809 C2.13512016,36.5337661 0,31.4128494 0,27.7978099 Z M21.218981,55.1937523 C23.3045866,52.4481219 25.3900817,49.544994 27.3335185,46.6192624 C28.7718539,44.4539316 30.0767106,42.3579579 31.2164905,40.3624657 C34.2911205,34.9794963 36,30.599598 36,27.7978099 C36,19.0774792 28.8420999,12 20.0010604,12 C11.158192,12 4,19.0771919 4,27.7978099 C4,30.4632008 5.93874424,35.1131255 9.36950153,40.9689715 C10.3673674,42.6721957 11.4751323,44.451535 12.6739885,46.2872015 C14.6204329,49.2675615 16.7089267,52.2499471 18.7975851,55.0889045 C19.2270253,55.6726105 19.6383306,56.225473 20.0279228,56.7438473 C20.4057817,56.2579327 20.8038839,55.7402138 21.218981,55.1937523 Z" id="Shape" fill="#2E2E33" fill-rule="nonzero"></path>
                    </g>
                </g>
            </g>
        </g>
    </g>
</svg>