<?xml version="1.0" encoding="UTF-8"?>
<svg width="64px" height="64px" viewBox="0 0 64 64" version="1.1" xmlns="http://www.w3.org/2000/svg" xmlns:xlink="http://www.w3.org/1999/xlink">
    <!-- Generator: sketchtool 60.1 (101010) - https://sketch.com -->
    <title>E057D583-4F37-4FC4-905A-B42FA9A1690B@2.00x</title>
    <desc>Created with sketchtool.</desc>
    <defs>
        <linearGradient x1="50%" y1="4.05872175%" x2="50%" y2="96.490158%" id="linearGradient-1">
            <stop stop-color="#0EC645" offset="0%"></stop>
            <stop stop-color="#25F1E9" offset="100%"></stop>
        </linearGradient>
    </defs>
    <g id="Page-1" stroke="none" stroke-width="1" fill="none" fill-rule="evenodd">
        <g id="1440-Couriers" transform="translate(-1023.000000, -990.000000)" fill-rule="nonzero">
            <g id="USP" transform="translate(160.000000, 990.000000)">
                <g id="Uniform" transform="translate(863.000000, 0.000000)">
                    <g>
                        <circle id="Oval" fill="url(#linearGradient-1)" opacity="0.5" cx="37" cy="27" r="27"></circle>
                        <path d="M38.50099,20.0637284 C40.085865,20.4624351 40.8893875,20.8039358 41.6979328,21.4215921 C42.4765341,22.0163739 43.069834,22.7762584 43.4580185,23.6758684 C43.8647789,24.6185274 44,25.4880301 44,27.1512311 L44,56.8722296 C44,58.7997923 43.8016896,59.8267276 43.229361,60.8968891 C42.6943472,61.8972779 41.8972779,62.6943472 40.8968891,63.229361 C39.8267276,63.8016896 38.7997923,64 36.8722296,64 L7.1277704,64 C5.20020773,64 4.17327241,63.8016896 3.10311087,63.229361 C2.10272208,62.6943472 1.3056528,61.8972779 0.770639012,60.8968891 C0.198310358,59.8267276 0,58.7997923 0,56.8722296 L0,27.1512311 C0,25.4880301 0.135221119,24.6185274 0.54198146,23.6758684 C0.930166044,22.7762584 1.52346595,22.0163739 2.30206725,21.4215921 C3.11109777,20.803565 3.91509953,20.4620253 5.50186457,20.0630104 L9.00302304,15.0032556 L9,15 C13.3333333,13.0044264 17.6666667,12.0066395 22,12.0066395 C26.3333333,12.0066395 30.6666667,13.0044264 35,15 L34.998328,15.0018006 L38.5009901,20.0637285 L38.50099,20.0637284 Z M8.45322848,23.4482457 L6.51235698,23.9334636 C5.38282194,24.2158473 5.04920488,24.3566068 4.73027236,24.6002427 C4.49615826,24.779085 4.33137326,24.9901377 4.21465179,25.2606374 C4.0556427,25.6291378 4,25.986933 4,27.1512311 L4,56.8722296 C4,58.1959334 4.07784319,58.5990386 4.2978918,59.0104937 C4.46010639,59.3138086 4.68619141,59.5398936 4.98950631,59.7021082 C5.40096145,59.9221568 5.80406657,60 7.1277704,60 L36.8722296,60 C38.1959334,60 38.5990386,59.9221568 39.0104937,59.7021082 C39.3138086,59.5398936 39.5398936,59.3138086 39.7021082,59.0104937 C39.9221568,58.5990386 40,58.1959334 40,56.8722296 L40,27.1512311 C40,25.986933 39.9443573,25.6291378 39.7853482,25.2606374 C39.6686267,24.9901377 39.5038417,24.779085 39.2697276,24.6002427 C38.9507951,24.3566068 38.6171781,24.2158473 37.487643,23.9334636 L35.5486961,23.4487268 L26.4696801,33.5332606 L22.0011789,29.0024865 L17.5326777,33.5332606 L8.45322848,23.4482457 Z M19.2773269,26.0678905 L11.7902588,18.0048941 L10.5493567,19.7982036 L17.6653621,27.7023196 L19.2773269,26.0678905 Z M32.2110922,18.0034392 L24.7238165,26.0666592 L26.3369957,27.7023196 L33.4530011,19.7982036 L32.2110922,18.0034392 Z M27.9336605,16.7314508 C25.945925,16.2469914 23.9695635,16.0066395 22,16.0066395 C20.0304365,16.0066395 18.054075,16.2469914 16.0663395,16.7314508 L22,23.1215467 L27.9336605,16.7314508 Z M22,37 C20.8954305,37 20,36.1045695 20,35 C20,33.8954305 20.8954305,33 22,33 C23.1045695,33 24,33.8954305 24,35 C24,36.1045695 23.1045695,37 22,37 Z M22,43 C20.8954305,43 20,42.1045695 20,41 C20,39.8954305 20.8954305,39 22,39 C23.1045695,39 24,39.8954305 24,41 C24,42.1045695 23.1045695,43 22,43 Z" id="Shape" fill="#2E2E33"></path>
                    </g>
                </g>
            </g>
        </g>
    </g>
</svg>